<?xml version="1.0" encoding="utf-8"?>
<!-- Generator: Adobe Illustrator 23.1.0, SVG Export Plug-In . SVG Version: 6.00 Build 0)  -->
<svg version="1.1" id="Layer_1" xmlns="http://www.w3.org/2000/svg" xmlns:xlink="http://www.w3.org/1999/xlink" x="0px" y="0px"
	 viewBox="0 0 162.23 162.23" style="enable-background:new 0 0 162.23 162.23;" xml:space="preserve">
<style type="text/css">
	.st0{fill:#FFFFFF;}
</style>
<rect x="96.75" y="96.56" class="st0" width="7.66" height="8.46"/>
<rect x="115.39" y="96.56" class="st0" width="7.66" height="8.46"/>
<rect x="36.94" y="96.56" class="st0" width="7.66" height="8.46"/>
<rect x="56.51" y="96.56" class="st0" width="7.66" height="8.46"/>
<rect x="56.51" y="71.64" class="st0" width="7.66" height="8.46"/>
<rect x="36.94" y="71.64" class="st0" width="7.66" height="8.46"/>
<rect x="76.08" y="71.64" class="st0" width="7.66" height="8.46"/>
<path class="st0" d="M150.61,122.02h-10.95V81.16c0-1.65-1.33-2.98-2.98-2.98h-32.95V51.53v-15.2c0-1.65-1.33-2.98-2.98-2.98h-76
	c-1.65,0-2.98,1.34-2.98,2.98v15.2v70.49h-9.44c-1.65,0-2.98,1.33-2.98,2.98c0,1.65,1.33,2.98,2.98,2.98h138.27
	c1.65,0,2.98-1.33,2.98-2.98C153.59,123.36,152.26,122.02,150.61,122.02 M97.77,48.55H27.74v-9.23h70.03V48.55z M27.74,54.51h70.03
	v26.65c0,1.65,1.33,2.98,2.98,2.98h32.95v37.88H87.94V98.91c0-1.65-1.33-2.98-2.98-2.98h-10.1c-1.65,0-2.98,1.33-2.98,2.98v23.11
	H27.74V54.51z M81.98,122.02h-4.14v-20.13h4.14V122.02z"/>
</svg>
