<?xml version="1.0" encoding="utf-8"?>
<!-- Generator: Adobe Illustrator 23.1.0, SVG Export Plug-In . SVG Version: 6.00 Build 0)  -->
<svg version="1.1" id="Layer_1" xmlns="http://www.w3.org/2000/svg" xmlns:xlink="http://www.w3.org/1999/xlink" x="0px" y="0px"
	 viewBox="0 0 162.23 162.23" style="enable-background:new 0 0 162.23 162.23;" xml:space="preserve">
<style type="text/css">
	.st0{fill:#FFFFFF;}
	.st1{fill:#A71D22;}
</style>
<rect x="94.43" y="105.43" class="st0" width="7.66" height="8.46"/>
<rect x="113.07" y="105.43" class="st0" width="7.66" height="8.46"/>
<rect x="34.62" y="105.43" class="st0" width="7.66" height="8.46"/>
<rect x="54.19" y="105.43" class="st0" width="7.66" height="8.46"/>
<rect x="54.19" y="80.5" class="st0" width="7.66" height="8.46"/>
<rect x="34.62" y="80.5" class="st0" width="7.66" height="8.46"/>
<rect x="73.76" y="80.5" class="st0" width="7.66" height="8.46"/>
<path class="st0" d="M148.29,130.89h-10.95V90.02c0-1.65-1.34-2.98-2.98-2.98h-32.95V60.4V45.2c0-1.65-1.33-2.98-2.98-2.98h-76
	c-1.65,0-2.98,1.34-2.98,2.98v15.2v70.49h-9.44c-1.65,0-2.98,1.33-2.98,2.98c0,1.65,1.33,2.98,2.98,2.98h138.27
	c1.65,0,2.98-1.33,2.98-2.98C151.27,132.22,149.94,130.89,148.29,130.89 M95.45,57.42H25.42v-9.23h70.03V57.42z M25.42,63.38h70.03
	v26.65c0,1.65,1.33,2.98,2.98,2.98h32.95v37.88H85.62v-23.11c0-1.65-1.34-2.98-2.98-2.98h-10.1c-1.65,0-2.98,1.33-2.98,2.98v23.11
	H25.42V63.38z M79.66,130.89h-4.14v-20.13h4.14V130.89z"/>
<rect x="121.5" y="37.6" class="st1" width="33.69" height="9.24"/>
<rect x="133.72" y="25.38" class="st1" width="9.24" height="33.69"/>
</svg>
