<?xml version="1.0" encoding="utf-8"?>
<!-- Generator: Adobe Illustrator 23.1.0, SVG Export Plug-In . SVG Version: 6.00 Build 0)  -->
<svg version="1.1" id="Layer_1" xmlns="http://www.w3.org/2000/svg" xmlns:xlink="http://www.w3.org/1999/xlink" x="0px" y="0px"
	 viewBox="0 0 162.23 162.23" style="enable-background:new 0 0 162.23 162.23;" xml:space="preserve">
<style type="text/css">
	.st0{fill:none;}
	.st1{fill:#FFFFFF;}
</style>
<line class="st0" x1="162.59" y1="-0.44" x2="0.36" y2="-0.44"/>
<line class="st0" x1="0.36" y1="161.78" x2="162.59" y2="161.78"/>
<path class="st1" d="M57.86,71.02h46.94c1.85,0,3.35-1.5,3.35-3.35c0-1.85-1.5-3.35-3.35-3.35H57.86c-1.85,0-3.35,1.5-3.35,3.35
	C54.51,69.52,56.01,71.02,57.86,71.02"/>
<path class="st1" d="M57.86,84.97h46.94c1.85,0,3.35-1.5,3.35-3.35s-1.5-3.35-3.35-3.35H57.86c-1.85,0-3.35,1.5-3.35,3.35
	S56.01,84.97,57.86,84.97"/>
<path class="st1" d="M104.81,98.91c1.85,0,3.35-1.5,3.35-3.35c0-1.85-1.5-3.35-3.35-3.35H57.86c-1.85,0-3.35,1.5-3.35,3.35
	c0,1.85,1.5,3.35,3.35,3.35H104.81z"/>
<path class="st1" d="M146.01,131.86h-15V54.77c0-1.04-0.48-2.02-1.31-2.66L83.38,16.5c-1.2-0.92-2.87-0.92-4.08-0.01L32.68,52.11
	c-0.83,0.63-1.32,1.62-1.32,2.66v77.09h-14.7c-1.85,0-3.35,1.5-3.35,3.35c0,1.85,1.5,3.35,3.35,3.35h129.34
	c1.85,0,3.35-1.5,3.35-3.35C149.36,133.36,147.86,131.86,146.01,131.86 M38.06,56.43l43.26-33.05l42.98,33.05v75.44H94.79v-19.5
	c0-1.85-1.5-3.35-3.35-3.35h-20.2c-1.85,0-3.35,1.5-3.35,3.35v19.5H38.06V56.43z M88.09,131.86H74.58v-16.15h13.51V131.86z"/>
</svg>
